<svg width="88" height="82" viewBox="0 0 88 82" fill="none" xmlns="http://www.w3.org/2000/svg">
<path d="M22.5 61L24.6651 62.5H20.3349L22.5 61Z" fill="black"/>
<rect width="88" height="82" rx="7" fill="#4A4848"/>
<ellipse cx="22" cy="22.5" rx="17" ry="15.5" fill="#F1EFEF"/>
<circle cx="12" cy="17" r="1" fill="#A3A0A0"/>
<circle cx="34" cy="26" r="1" fill="#A3A0A0"/>
<circle cx="26" cy="31" r="1" fill="#A3A0A0"/>
<circle cx="13" cy="30" r="1" fill="#A3A0A0"/>
<circle cx="27" cy="14" r="1" fill="#A3A0A0"/>
<circle cx="19" cy="19" r="1" fill="#A3A0A0"/>
<rect width="88" height="82" rx="7" fill="#4A4848"/>
<ellipse cx="22" cy="22.5" rx="17" ry="15.5" fill="#F1EFEF"/>
<circle cx="12" cy="17" r="1" fill="#A3A0A0"/>
<circle cx="34" cy="26" r="1" fill="#A3A0A0"/>
<circle cx="26" cy="31" r="1" fill="#A3A0A0"/>
<circle cx="13" cy="30" r="1" fill="#A3A0A0"/>
<circle cx="27" cy="14" r="1" fill="#A3A0A0"/>
<circle cx="19" cy="19" r="1" fill="#A3A0A0"/>
<rect x="10" y="62" width="14" height="20" fill="#C19898"/>
<rect x="10" y="62" width="14" height="20" fill="#C19898"/>
<rect x="12" y="65" width="3" height="3" fill="#D9D9D9"/>
<rect x="12" y="69" width="3" height="2" fill="#D9D9D9"/>
<rect x="12" y="72" width="3" height="2" fill="#D9D9D9"/>
<rect x="12" y="75" width="3" height="3" fill="#D9D9D9"/>
<rect x="19" y="65" width="3" height="3" fill="#D9D9D9"/>
<rect x="19" y="69" width="3" height="2" fill="#D9D9D9"/>
<rect x="19" y="72" width="3" height="2" fill="#D9D9D9"/>
<rect x="19" y="75" width="3" height="3" fill="#D9D9D9"/>
<rect x="16" y="79" width="2" height="3" fill="black" fill-opacity="0.65"/>
<rect x="12" y="61" width="1" height="2" fill="#D9D9D9"/>
<rect x="13" y="61" width="2" height="2" fill="#D9D9D9"/>
<rect x="46" y="62" width="14" height="20" fill="#C19898"/>
<rect x="46" y="62" width="14" height="20" fill="#C19898"/>
<rect x="48" y="65" width="3" height="3" fill="#D9D9D9"/>
<rect x="48" y="69" width="3" height="2" fill="#D9D9D9"/>
<rect x="48" y="72" width="3" height="2" fill="#FFFBFB"/>
<rect x="48" y="75" width="3" height="3" fill="#F9F9F9"/>
<rect x="55" y="65" width="3" height="3" fill="#D9D9D9"/>
<rect x="55" y="69" width="3" height="2" fill="#FFEFEF"/>
<rect x="55" y="72" width="3" height="2" fill="white"/>
<rect x="55" y="75" width="3" height="3" fill="#D9D9D9"/>
<rect x="52" y="79" width="2" height="3" fill="black" fill-opacity="0.65"/>
<rect x="48" y="61" width="1" height="2" fill="#D9D9D9"/>
<rect x="49" y="61" width="2" height="2" fill="#D9D9D9"/>
<path d="M71.5 68L75.3971 72.5H67.6029L71.5 68Z" fill="black"/>
<rect x="66" y="72" width="11" height="10" fill="#C19A9A"/>
<rect x="73" y="74" width="3" height="3" fill="#D9D9D9"/>
<rect x="68" y="78" width="2" height="4" fill="#302D2D"/>
<rect x="77" y="72" width="8" height="1" fill="#D9D9D9"/>
<rect x="84" y="73" width="1" height="8" fill="#D9D9D9"/>
<circle cx="34" cy="6" r="1" fill="white" fill-opacity="0.83"/>
<circle cx="79" cy="58" r="1" fill="white" fill-opacity="0.83"/>
<circle cx="8" cy="7" r="1" fill="white" fill-opacity="0.63"/>
<circle cx="10" cy="42" r="1" fill="white" fill-opacity="0.83"/>
<circle cx="3" cy="63" r="1" fill="white" fill-opacity="0.83"/>
<circle cx="42" cy="67" r="1" fill="white" fill-opacity="0.83"/>
<circle cx="45" cy="33" r="1" fill="white" fill-opacity="0.83"/>
<circle cx="80" cy="12" r="1" fill="white" fill-opacity="0.83"/>
<ellipse cx="79.5" cy="30.5" rx="7.5" ry="6.5" fill="#FBFBFB"/>
<ellipse cx="79.5" cy="36.5" rx="7.5" ry="6.5" fill="#FBFBFB"/>
<ellipse cx="79.5" cy="43.5" rx="7.5" ry="6.5" fill="#FBFBFB"/>
<ellipse cx="72.5" cy="43.5" rx="7.5" ry="6.5" fill="#FBFBFB"/>
<ellipse cx="70.5" cy="37.5" rx="7.5" ry="6.5" fill="#FBFBFB"/>
<ellipse cx="64.5" cy="44.5" rx="7.5" ry="6.5" fill="#FBFBFB"/>
<ellipse cx="61.5" cy="38.5" rx="7.5" ry="6.5" fill="#FBFBFB"/>
<ellipse cx="57.5" cy="43.5" rx="7.5" ry="6.5" fill="#FBFBFB"/>
<ellipse cx="30.5" cy="47.5" rx="7.5" ry="6.5" fill="#FBFBFB"/>
<ellipse cx="39.5" cy="49.5" rx="7.5" ry="6.5" fill="#FBFBFB"/>
<ellipse cx="52.5" cy="12.5" rx="7.5" ry="6.5" fill="#FBFBFB"/>
<ellipse cx="61.5" cy="15.5" rx="7.5" ry="6.5" fill="#FBFBFB"/>
<ellipse cx="59.5" cy="10.5" rx="7.5" ry="6.5" fill="#FBFBFB"/>
<ellipse cx="55.5" cy="20.5" rx="7.5" ry="6.5" fill="#FBFBFB"/>
<ellipse cx="66.5" cy="21.5" rx="7.5" ry="6.5" fill="#FBFBFB"/>
<ellipse cx="30.5" cy="51.5" rx="7.5" ry="6.5" fill="#FBFBFB"/>
<ellipse cx="23.5" cy="48.5" rx="7.5" ry="6.5" fill="#FBFBFB"/>
</svg>
