<svg width="88" height="82" viewBox="0 0 88 82" fill="none" xmlns="http://www.w3.org/2000/svg">
<path d="M22.5 61L24.6651 62.5H20.3349L22.5 61Z" fill="black"/>
<rect width="88" height="82" rx="7" fill="#4A4848"/>
<rect width="88" height="82" rx="7" fill="#79AFD7" fill-opacity="0.95"/>
<ellipse cx="21" cy="18.5" rx="17" ry="15.5" fill="#F2EC5B"/>
<rect x="10" y="62" width="14" height="20" fill="#C19898"/>
<rect x="10" y="62" width="14" height="20" fill="#C19898"/>
<rect x="12" y="65" width="3" height="3" fill="#D9D9D9"/>
<rect x="12" y="69" width="3" height="2" fill="#D9D9D9"/>
<rect x="12" y="72" width="3" height="2" fill="white"/>
<rect x="12" y="75" width="3" height="3" fill="#D9D9D9"/>
<rect x="19" y="65" width="3" height="3" fill="#D9D9D9"/>
<rect x="19" y="69" width="3" height="2" fill="#D9D9D9"/>
<rect x="19" y="72" width="3" height="2" fill="#D9D9D9"/>
<rect x="19" y="75" width="3" height="3" fill="#D9D9D9"/>
<rect x="16" y="79" width="2" height="3" fill="black" fill-opacity="0.65"/>
<rect x="12" y="61" width="1" height="2" fill="#D9D9D9"/>
<rect x="13" y="61" width="2" height="2" fill="#D9D9D9"/>
<rect x="46" y="62" width="14" height="20" fill="#C19898"/>
<rect x="46" y="62" width="14" height="20" fill="#C19898"/>
<rect x="48" y="65" width="3" height="3" fill="white"/>
<rect x="48" y="69" width="3" height="2" fill="#D9D9D9"/>
<rect x="48" y="72" width="3" height="2" fill="#FFFBFB"/>
<rect x="48" y="75" width="3" height="3" fill="#F9F9F9"/>
<rect x="55" y="65" width="3" height="3" fill="white"/>
<rect x="55" y="69" width="3" height="2" fill="#FFEFEF"/>
<rect x="55" y="72" width="3" height="2" fill="white"/>
<rect x="55" y="75" width="3" height="3" fill="white"/>
<rect x="52" y="79" width="2" height="3" fill="black" fill-opacity="0.65"/>
<rect x="48" y="61" width="1" height="2" fill="#D9D9D9"/>
<rect x="49" y="61" width="2" height="2" fill="#D9D9D9"/>
<path d="M71.5 68L75.3971 72.5H67.6029L71.5 68Z" fill="black"/>
<rect x="66" y="72" width="11" height="10" fill="#C19A9A"/>
<rect x="73" y="74" width="3" height="3" fill="white"/>
<rect x="68" y="78" width="2" height="4" fill="#302D2D"/>
<rect x="77" y="72" width="8" height="1" fill="#D9D9D9"/>
<rect x="84" y="73" width="1" height="8" fill="#D9D9D9"/>
<ellipse cx="81.5" cy="32" rx="5.5" ry="5" fill="#A3A0A0"/>
<ellipse cx="74.5" cy="37" rx="5.5" ry="5" fill="#A3A0A0"/>
<ellipse cx="73.5" cy="48" rx="5.5" ry="5" fill="#A3A0A0"/>
<ellipse cx="74.5" cy="52" rx="5.5" ry="5" fill="#A3A0A0"/>
<ellipse cx="65.5" cy="53" rx="5.5" ry="5" fill="#A3A0A0"/>
<ellipse cx="65.5" cy="46" rx="5.5" ry="5" fill="#A3A0A0"/>
<ellipse cx="64.5" cy="40" rx="5.5" ry="5" fill="#A3A0A0"/>
<ellipse cx="60.5" cy="43" rx="5.5" ry="5" fill="#CBC4C4"/>
<ellipse cx="57.5" cy="49" rx="5.5" ry="5" fill="#A3A0A0"/>
<ellipse cx="57.5" cy="52" rx="5.5" ry="5" fill="#A3A0A0"/>
<ellipse cx="52.5" cy="47" rx="5.5" ry="5" fill="#A3A0A0"/>
<ellipse cx="53.5" cy="42" rx="5.5" ry="5" fill="#A3A0A0"/>
<ellipse cx="21.5" cy="43" rx="5.5" ry="5" fill="#A3A0A0"/>
<ellipse cx="25.5" cy="44" rx="5.5" ry="5" fill="#EBEBEB" fill-opacity="0.74"/>
<ellipse cx="31.5" cy="45" rx="5.5" ry="5" fill="#D6D5D5" fill-opacity="0.86"/>
<ellipse cx="26.5" cy="49" rx="5.5" ry="5" fill="#A3A0A0"/>
<ellipse cx="19.5" cy="48" rx="5.5" ry="5" fill="#A3A0A0"/>
<ellipse cx="13.5" cy="46" rx="5.5" ry="5" fill="#A3A0A0"/>
<ellipse cx="14.5" cy="42" rx="5.5" ry="5" fill="#A3A0A0"/>
<ellipse cx="56.5" cy="16" rx="5.5" ry="5" fill="#A3A0A0"/>
<ellipse cx="62.5" cy="18" rx="5.5" ry="5" fill="#A3A0A0"/>
<ellipse cx="61.5" cy="14" rx="5.5" ry="5" fill="#A3A0A0"/>
<ellipse cx="57.5" cy="21" rx="5.5" ry="5" fill="#A3A0A0"/>
<ellipse cx="63.5" cy="23" rx="5.5" ry="5" fill="#A3A0A0" fill-opacity="0.88"/>
<ellipse cx="52.5" cy="17" rx="5.5" ry="5" fill="#A3A0A0"/>
<ellipse cx="56.5" cy="13" rx="5.5" ry="5" fill="#A3A0A0" fill-opacity="0.92"/>
<ellipse cx="82.5" cy="37" rx="5.5" ry="5" fill="#ECE8E8" fill-opacity="0.9"/>
<ellipse cx="82.5" cy="45" rx="5.5" ry="5" fill="#9C9999"/>
<ellipse cx="82.5" cy="52" rx="5.5" ry="5" fill="#A3A0A0"/>
<ellipse cx="73.5" cy="42" rx="5.5" ry="5" fill="#EFECEC" fill-opacity="0.72"/>
</svg>
