<svg width="88" height="82" viewBox="0 0 88 82" fill="none" xmlns="http://www.w3.org/2000/svg">
<rect width="88" height="82" rx="7" fill="#4A4848"/>
<ellipse cx="22" cy="22.5" rx="17" ry="15.5" fill="#F1EFEF"/>
<circle cx="12" cy="17" r="1" fill="#A3A0A0"/>
<circle cx="34" cy="26" r="1" fill="#A3A0A0"/>
<circle cx="26" cy="31" r="1" fill="#A3A0A0"/>
<circle cx="13" cy="30" r="1" fill="#A3A0A0"/>
<circle cx="27" cy="14" r="1" fill="#A3A0A0"/>
<circle cx="19" cy="19" r="1" fill="#A3A0A0"/>
<rect width="88" height="82" rx="7" fill="#4A4848"/>
<ellipse cx="22" cy="22.5" rx="17" ry="15.5" fill="#F1EFEF"/>
<circle cx="12" cy="17" r="1" fill="#A3A0A0"/>
<circle cx="34" cy="26" r="1" fill="#A3A0A0"/>
<circle cx="26" cy="31" r="1" fill="#A3A0A0"/>
<circle cx="13" cy="30" r="1" fill="#A3A0A0"/>
<circle cx="27" cy="14" r="1" fill="#A3A0A0"/>
<circle cx="19" cy="19" r="1" fill="#A3A0A0"/>
<ellipse cx="54" cy="55.5" rx="15" ry="14.5" fill="#FFFDFD" fill-opacity="0.94"/>
<ellipse cx="37" cy="52.5" rx="15" ry="14.5" fill="#FFFDFD" fill-opacity="0.9"/>
<ellipse cx="50" cy="67.5" rx="15" ry="14.5" fill="#FFFDFD" fill-opacity="0.9"/>
<ellipse cx="31" cy="67.5" rx="15" ry="14.5" fill="#FFFDFD" fill-opacity="0.93"/>
<ellipse cx="15" cy="67.5" rx="15" ry="14.5" fill="#FFFDFD"/>
<ellipse cx="28" cy="59.5" rx="15" ry="14.5" fill="#FFFDFD" fill-opacity="0.9"/>
<ellipse cx="73" cy="67.5" rx="15" ry="14.5" fill="#FFFDFD" fill-opacity="0.95"/>
<ellipse cx="73" cy="57.5" rx="15" ry="14.5" fill="#FFFDFD" fill-opacity="0.95"/>
<ellipse cx="73" cy="46.5" rx="15" ry="14.5" fill="#FFFDFD" fill-opacity="0.92"/>
</svg>
