<svg width="92" height="85" viewBox="0 0 92 85" fill="none" xmlns="http://www.w3.org/2000/svg">
<rect width="92" height="85" rx="10" fill="#6087EB"/>
<ellipse cx="74.8202" cy="43" rx="14.1573" ry="13" fill="#D9D9D9"/>
<ellipse cx="28.3034" cy="36" rx="26.2921" ry="23" fill="#F6FA4F"/>
<ellipse cx="76.8427" cy="49" rx="14.1573" ry="13" fill="white" fill-opacity="0.84"/>
<ellipse cx="77.3483" cy="36" rx="13.6517" ry="13" fill="white"/>
<ellipse cx="58.1348" cy="41" rx="13.6517" ry="13" fill="white" fill-opacity="0.91"/>
<ellipse cx="15.1573" cy="58" rx="14.1573" ry="13" fill="white" fill-opacity="0.92"/>
<ellipse cx="77.3483" cy="56" rx="13.6517" ry="13" fill="white" fill-opacity="0.91"/>
<ellipse cx="51.0562" cy="55" rx="13.6517" ry="13" fill="white" fill-opacity="0.92"/>
<ellipse cx="31.8427" cy="55" rx="13.6517" ry="13" fill="white" fill-opacity="0.92"/>
<path d="M32.3483 45C32.3483 52.1797 26.2362 58 18.6966 58C11.157 58 5.04494 52.1797 5.04494 45C5.04494 37.8203 11.157 32 18.6966 32C26.2362 32 32.3483 37.8203 32.3483 45Z" fill="white" fill-opacity="0.92"/>
</svg>
