<svg width="88" height="82" viewBox="0 0 88 82" fill="none" xmlns="http://www.w3.org/2000/svg">
<path d="M22.5 61L24.6651 62.5H20.3349L22.5 61Z" fill="black"/>
<rect width="88" height="82" rx="7" fill="#4A4848"/>
<rect width="88" height="82" rx="7" fill="#79AFD7" fill-opacity="0.95"/>
<ellipse cx="21" cy="18.5" rx="17" ry="15.5" fill="#F2EC5B"/>
<rect x="10" y="62" width="14" height="20" fill="#C19898"/>
<rect x="10" y="62" width="14" height="20" fill="#C19898"/>
<rect x="12" y="65" width="3" height="3" fill="#D9D9D9"/>
<rect x="12" y="69" width="3" height="2" fill="#D9D9D9"/>
<rect x="12" y="72" width="3" height="2" fill="white"/>
<rect x="12" y="75" width="3" height="3" fill="#D9D9D9"/>
<rect x="19" y="65" width="3" height="3" fill="#D9D9D9"/>
<rect x="19" y="69" width="3" height="2" fill="#D9D9D9"/>
<rect x="19" y="72" width="3" height="2" fill="#D9D9D9"/>
<rect x="19" y="75" width="3" height="3" fill="#D9D9D9"/>
<rect x="16" y="79" width="2" height="3" fill="black" fill-opacity="0.65"/>
<rect x="12" y="61" width="1" height="2" fill="#D9D9D9"/>
<rect x="13" y="61" width="2" height="2" fill="#D9D9D9"/>
<rect x="46" y="62" width="14" height="20" fill="#C19898"/>
<rect x="46" y="62" width="14" height="20" fill="#C19898"/>
<rect x="48" y="65" width="3" height="3" fill="white"/>
<rect x="48" y="69" width="3" height="2" fill="#D9D9D9"/>
<rect x="48" y="72" width="3" height="2" fill="#FFFBFB"/>
<rect x="48" y="75" width="3" height="3" fill="#F9F9F9"/>
<rect x="55" y="65" width="3" height="3" fill="white"/>
<rect x="55" y="69" width="3" height="2" fill="#FFEFEF"/>
<rect x="55" y="72" width="3" height="2" fill="white"/>
<rect x="55" y="75" width="3" height="3" fill="white"/>
<rect x="52" y="79" width="2" height="3" fill="black" fill-opacity="0.65"/>
<rect x="48" y="61" width="1" height="2" fill="#D9D9D9"/>
<rect x="49" y="61" width="2" height="2" fill="#D9D9D9"/>
<path d="M71.5 68L75.3971 72.5H67.6029L71.5 68Z" fill="black"/>
<rect x="66" y="72" width="11" height="10" fill="#C19A9A"/>
<rect x="73" y="74" width="3" height="3" fill="white"/>
<rect x="68" y="78" width="2" height="4" fill="#302D2D"/>
<rect x="77" y="72" width="8" height="1" fill="#D9D9D9"/>
<rect x="84" y="73" width="1" height="8" fill="#D9D9D9"/>
<ellipse cx="81.5" cy="32" rx="5.5" ry="5" fill="#A3A0A0"/>
<ellipse cx="74.5" cy="37" rx="5.5" ry="5" fill="#A3A0A0"/>
<ellipse cx="73.5" cy="48" rx="5.5" ry="5" fill="#A3A0A0"/>
<ellipse cx="74.5" cy="52" rx="5.5" ry="5" fill="#A3A0A0"/>
<ellipse cx="65.5" cy="53" rx="5.5" ry="5" fill="#A3A0A0"/>
<ellipse cx="65.5" cy="46" rx="5.5" ry="5" fill="#A3A0A0"/>
<ellipse cx="64.5" cy="40" rx="5.5" ry="5" fill="#A3A0A0"/>
<ellipse cx="60.5" cy="43" rx="5.5" ry="5" fill="#CBC4C4"/>
<ellipse cx="57.5" cy="49" rx="5.5" ry="5" fill="#A3A0A0"/>
<ellipse cx="57.5" cy="52" rx="5.5" ry="5" fill="#A3A0A0"/>
<ellipse cx="52.5" cy="47" rx="5.5" ry="5" fill="#A3A0A0"/>
<ellipse cx="53.5" cy="42" rx="5.5" ry="5" fill="#A3A0A0"/>
<ellipse cx="21.5" cy="43" rx="5.5" ry="5" fill="#A3A0A0"/>
<ellipse cx="25.5" cy="44" rx="5.5" ry="5" fill="#EBEBEB" fill-opacity="0.74"/>
<ellipse cx="31.5" cy="45" rx="5.5" ry="5" fill="#D6D5D5" fill-opacity="0.86"/>
<ellipse cx="26.5" cy="49" rx="5.5" ry="5" fill="#A3A0A0"/>
<ellipse cx="19.5" cy="48" rx="5.5" ry="5" fill="#A3A0A0"/>
<ellipse cx="13.5" cy="46" rx="5.5" ry="5" fill="#A3A0A0"/>
<ellipse cx="14.5" cy="42" rx="5.5" ry="5" fill="#A3A0A0"/>
<ellipse cx="56.5" cy="16" rx="5.5" ry="5" fill="#A3A0A0"/>
<ellipse cx="62.5" cy="18" rx="5.5" ry="5" fill="#A3A0A0"/>
<ellipse cx="61.5" cy="14" rx="5.5" ry="5" fill="#A3A0A0"/>
<ellipse cx="57.5" cy="21" rx="5.5" ry="5" fill="#A3A0A0"/>
<ellipse cx="63.5" cy="23" rx="5.5" ry="5" fill="#A3A0A0" fill-opacity="0.88"/>
<ellipse cx="52.5" cy="17" rx="5.5" ry="5" fill="#A3A0A0"/>
<ellipse cx="56.5" cy="13" rx="5.5" ry="5" fill="#A3A0A0" fill-opacity="0.92"/>
<ellipse cx="82.5" cy="37" rx="5.5" ry="5" fill="#ECE8E8" fill-opacity="0.9"/>
<ellipse cx="82.5" cy="45" rx="5.5" ry="5" fill="#9C9999"/>
<ellipse cx="82.5" cy="52" rx="5.5" ry="5" fill="#A3A0A0"/>
<ellipse cx="73.5" cy="42" rx="5.5" ry="5" fill="#EFECEC" fill-opacity="0.72"/>
<path d="M26.0642 56.5984C26.0642 57.4269 26.3927 58.0984 25.5642 58.0984C24.7358 58.0984 25.0642 57.4269 25.0642 56.5984C25.0642 55.77 24.7358 56.0431 25.5642 56.0431C26.3927 56.0431 26.0642 55.77 26.0642 56.5984Z" fill="#A5D7EC" fill-opacity="0.69"/>
<path d="M54.0642 55.5984C54.0642 56.4269 54.3927 57.0984 53.5642 57.0984C52.7358 57.0984 53.0642 56.4269 53.0642 55.5984C53.0642 54.77 52.7358 55.0431 53.5642 55.0431C54.3927 55.0431 54.0642 54.77 54.0642 55.5984Z" fill="#A5D7EC" fill-opacity="0.69"/>
<path d="M55.0642 59.5984C55.0642 60.4269 55.3927 61.0984 54.5642 61.0984C53.7358 61.0984 54.0642 60.4269 54.0642 59.5984C54.0642 58.77 53.7358 59.0431 54.5642 59.0431C55.3927 59.0431 55.0642 58.77 55.0642 59.5984Z" fill="#A5D7EC" fill-opacity="0.69"/>
<path d="M63.0642 58.5984C63.0642 59.4269 63.3927 60.0984 62.5642 60.0984C61.7358 60.0984 62.0642 59.4269 62.0642 58.5984C62.0642 57.77 61.7358 58.0431 62.5642 58.0431C63.3927 58.0431 63.0642 57.77 63.0642 58.5984Z" fill="#A5D7EC" fill-opacity="0.69"/>
<path d="M64.0642 64.5984C64.0642 65.4269 64.3927 66.0984 63.5642 66.0984C62.7358 66.0984 63.0642 65.4269 63.0642 64.5984C63.0642 63.77 62.7358 64.0431 63.5642 64.0431C64.3927 64.0431 64.0642 63.77 64.0642 64.5984Z" fill="#A5D7EC" fill-opacity="0.69"/>
<path d="M60.0642 27.5984C60.0642 28.4269 60.3927 29.0984 59.5642 29.0984C58.7358 29.0984 59.0642 28.4269 59.0642 27.5984C59.0642 26.77 58.7358 27.0431 59.5642 27.0431C60.3927 27.0431 60.0642 26.77 60.0642 27.5984Z" fill="#A5D7EC" fill-opacity="0.69"/>
<path d="M55.0642 30.5984C55.0642 31.4269 55.3927 32.0984 54.5642 32.0984C53.7358 32.0984 54.0642 31.4269 54.0642 30.5984C54.0642 29.77 53.7358 30.0431 54.5642 30.0431C55.3927 30.0431 55.0642 29.77 55.0642 30.5984Z" fill="#A5D7EC" fill-opacity="0.69"/>
<path d="M52.0642 22.5984C52.0642 23.4269 52.3927 24.0984 51.5642 24.0984C50.7358 24.0984 51.0642 23.4269 51.0642 22.5984C51.0642 21.77 50.7358 22.0431 51.5642 22.0431C52.3927 22.0431 52.0642 21.77 52.0642 22.5984Z" fill="#A5D7EC" fill-opacity="0.69"/>
<path d="M68.0642 25.5984C68.0642 26.4269 68.3927 27.0984 67.5642 27.0984C66.7358 27.0984 67.0642 26.4269 67.0642 25.5984C67.0642 24.77 66.7358 25.0431 67.5642 25.0431C68.3927 25.0431 68.0642 24.77 68.0642 25.5984Z" fill="#A5D7EC" fill-opacity="0.69"/>
<path d="M61.0642 71.5984C61.0642 72.4269 61.3927 73.0984 60.5642 73.0984C59.7358 73.0984 60.0642 72.4269 60.0642 71.5984C60.0642 70.77 59.7358 71.0431 60.5642 71.0431C61.3927 71.0431 61.0642 70.77 61.0642 71.5984Z" fill="#A5D7EC" fill-opacity="0.69"/>
<path d="M75.0642 58.5984C75.0642 59.4269 75.3927 60.0984 74.5642 60.0984C73.7358 60.0984 74.0642 59.4269 74.0642 58.5984C74.0642 57.77 73.7358 58.0431 74.5642 58.0431C75.3927 58.0431 75.0642 57.77 75.0642 58.5984Z" fill="#A5D7EC" fill-opacity="0.69"/>
<path d="M77.0642 60.5984C77.0642 61.4269 77.3927 62.0984 76.5642 62.0984C75.7358 62.0984 76.0642 61.4269 76.0642 60.5984C76.0642 59.77 75.7358 60.0431 76.5642 60.0431C77.3927 60.0431 77.0642 59.77 77.0642 60.5984Z" fill="#A5D7EC" fill-opacity="0.69"/>
<path d="M78.0642 64.5984C78.0642 65.4269 78.3927 66.0984 77.5642 66.0984C76.7358 66.0984 77.0642 65.4269 77.0642 64.5984C77.0642 63.77 76.7358 64.0431 77.5642 64.0431C78.3927 64.0431 78.0642 63.77 78.0642 64.5984Z" fill="#A5D7EC" fill-opacity="0.69"/>
<path d="M85.0642 57.5984C85.0642 58.4269 85.3927 59.0984 84.5642 59.0984C83.7358 59.0984 84.0642 58.4269 84.0642 57.5984C84.0642 56.77 83.7358 57.0431 84.5642 57.0431C85.3927 57.0431 85.0642 56.77 85.0642 57.5984Z" fill="#A5D7EC" fill-opacity="0.69"/>
<path d="M83.0642 61.5984C83.0642 62.4269 83.3927 63.0984 82.5642 63.0984C81.7358 63.0984 82.0642 62.4269 82.0642 61.5984C82.0642 60.77 81.7358 61.0431 82.5642 61.0431C83.3927 61.0431 83.0642 60.77 83.0642 61.5984Z" fill="#A5D7EC" fill-opacity="0.69"/>
<path d="M27.0642 61.5984C27.0642 62.4269 27.3927 63.0984 26.5642 63.0984C25.7358 63.0984 26.0642 62.4269 26.0642 61.5984C26.0642 60.77 25.7358 61.0431 26.5642 61.0431C27.3927 61.0431 27.0642 60.77 27.0642 61.5984Z" fill="#A5D7EC" fill-opacity="0.69"/>
<path d="M21.0642 58.5984C21.0642 59.4269 21.3927 60.0984 20.5642 60.0984C19.7358 60.0984 20.0642 59.4269 20.0642 58.5984C20.0642 57.77 19.7358 58.0431 20.5642 58.0431C21.3927 58.0431 21.0642 57.77 21.0642 58.5984Z" fill="#A5D7EC" fill-opacity="0.69"/>
<path d="M13.0642 50.5984C13.0642 51.4269 13.3927 52.0984 12.5642 52.0984C11.7358 52.0984 12.0642 51.4269 12.0642 50.5984C12.0642 49.77 11.7358 50.0431 12.5642 50.0431C13.3927 50.0431 13.0642 49.77 13.0642 50.5984Z" fill="#A5D7EC" fill-opacity="0.69"/>
<path d="M22.0642 53.5984C22.0642 54.4269 22.3927 55.0984 21.5642 55.0984C20.7358 55.0984 21.0642 54.4269 21.0642 53.5984C21.0642 52.77 20.7358 53.0431 21.5642 53.0431C22.3927 53.0431 22.0642 52.77 22.0642 53.5984Z" fill="#A5D7EC" fill-opacity="0.69"/>
<path d="M31.7495 51.1868L31.8242 52.618L33.0779 53.3474L31.9239 54.2139L33.2524 55.9058L32.5246 57.2265L33.2425 58.6759" stroke="#F4B1F6" stroke-opacity="0.43"/>
<path d="M66.7495 56.1868L66.8242 57.618L68.0779 58.3474L66.9239 59.2139L68.2524 60.9058L67.5246 62.2265L68.2425 63.6759" stroke="#F4B1F6" stroke-opacity="0.43"/>
<path d="M83.6241 56.1827L83.0075 57.4764L83.7618 58.7152L82.3344 58.9268L82.6957 61.0474L81.4264 61.8614L81.3666 63.4778" stroke="#F4B1F6" stroke-opacity="0.43"/>
<path d="M18.9311 51.7925L17.8779 52.7646L18.118 54.195L16.7141 53.861L16.2617 55.9641L14.7808 56.2482L14.1247 57.7267" stroke="#F4B1F6" stroke-opacity="0.43"/>
</svg>
