<svg width="88" height="82" viewBox="0 0 88 82" fill="none" xmlns="http://www.w3.org/2000/svg">
<path d="M22.5 61L24.6651 62.5H20.3349L22.5 61Z" fill="black"/>
<rect width="88" height="82" rx="7" fill="#4A4848"/>
<ellipse cx="22" cy="22.5" rx="17" ry="15.5" fill="#F1EFEF"/>
<circle cx="12" cy="17" r="1" fill="#A3A0A0"/>
<circle cx="34" cy="26" r="1" fill="#A3A0A0"/>
<circle cx="26" cy="31" r="1" fill="#A3A0A0"/>
<circle cx="13" cy="30" r="1" fill="#A3A0A0"/>
<circle cx="27" cy="14" r="1" fill="#A3A0A0"/>
<circle cx="19" cy="19" r="1" fill="#A3A0A0"/>
<rect width="88" height="82" rx="7" fill="#4A4848"/>
<ellipse cx="22" cy="22.5" rx="17" ry="15.5" fill="#F1EFEF"/>
<circle cx="12" cy="17" r="1" fill="#A3A0A0"/>
<circle cx="34" cy="26" r="1" fill="#A3A0A0"/>
<circle cx="26" cy="31" r="1" fill="#A3A0A0"/>
<circle cx="13" cy="30" r="1" fill="#A3A0A0"/>
<circle cx="27" cy="14" r="1" fill="#A3A0A0"/>
<circle cx="19" cy="19" r="1" fill="#A3A0A0"/>
<rect x="10" y="62" width="14" height="20" fill="#C19898"/>
<rect x="10" y="62" width="14" height="20" fill="#C19898"/>
<rect x="12" y="65" width="3" height="3" fill="#D9D9D9"/>
<rect x="12" y="69" width="3" height="2" fill="#D9D9D9"/>
<rect x="12" y="72" width="3" height="2" fill="#D9D9D9"/>
<rect x="12" y="75" width="3" height="3" fill="#D9D9D9"/>
<rect x="19" y="65" width="3" height="3" fill="#D9D9D9"/>
<rect x="19" y="69" width="3" height="2" fill="#D9D9D9"/>
<rect x="19" y="72" width="3" height="2" fill="#D9D9D9"/>
<rect x="19" y="75" width="3" height="3" fill="#D9D9D9"/>
<rect x="16" y="79" width="2" height="3" fill="black" fill-opacity="0.65"/>
<rect x="12" y="61" width="1" height="2" fill="#D9D9D9"/>
<rect x="13" y="61" width="2" height="2" fill="#D9D9D9"/>
<rect x="46" y="62" width="14" height="20" fill="#C19898"/>
<rect x="46" y="62" width="14" height="20" fill="#C19898"/>
<rect x="48" y="65" width="3" height="3" fill="#D9D9D9"/>
<rect x="48" y="69" width="3" height="2" fill="#D9D9D9"/>
<rect x="48" y="72" width="3" height="2" fill="#FFFBFB"/>
<rect x="48" y="75" width="3" height="3" fill="#F9F9F9"/>
<rect x="55" y="65" width="3" height="3" fill="#D9D9D9"/>
<rect x="55" y="69" width="3" height="2" fill="#FFEFEF"/>
<rect x="55" y="72" width="3" height="2" fill="white"/>
<rect x="55" y="75" width="3" height="3" fill="#D9D9D9"/>
<rect x="52" y="79" width="2" height="3" fill="black" fill-opacity="0.65"/>
<rect x="48" y="61" width="1" height="2" fill="#D9D9D9"/>
<rect x="49" y="61" width="2" height="2" fill="#D9D9D9"/>
<path d="M71.5 68L75.3971 72.5H67.6029L71.5 68Z" fill="black"/>
<rect x="66" y="72" width="11" height="10" fill="#C19A9A"/>
<rect x="73" y="74" width="3" height="3" fill="#D9D9D9"/>
<rect x="68" y="78" width="2" height="4" fill="#302D2D"/>
<rect x="77" y="72" width="8" height="1" fill="#D9D9D9"/>
<rect x="84" y="73" width="1" height="8" fill="#D9D9D9"/>
<circle cx="34" cy="6" r="1" fill="white" fill-opacity="0.83"/>
<circle cx="79" cy="60" r="1" fill="white" fill-opacity="0.83"/>
<circle cx="8" cy="7" r="1" fill="white" fill-opacity="0.63"/>
<circle cx="10" cy="42" r="1" fill="white" fill-opacity="0.83"/>
<circle cx="3" cy="63" r="1" fill="white" fill-opacity="0.83"/>
<path d="M43 67C43 67.5523 42.5523 68 42 68C41.4477 68 41 67.5523 41 67C41 66.4477 41.4477 66 42 66C42.5523 66 43 66.4477 43 67Z" fill="white" fill-opacity="0.31"/>
<circle cx="45" cy="33" r="1" fill="white" fill-opacity="0.83"/>
<circle cx="80" cy="12" r="1" fill="white" fill-opacity="0.83"/>
<ellipse cx="79.5" cy="30.5" rx="7.5" ry="6.5" fill="#A3A0A0"/>
<ellipse cx="79.5" cy="36.5" rx="7.5" ry="6.5" fill="#A3A0A0"/>
<ellipse cx="79.5" cy="43.5" rx="7.5" ry="6.5" fill="#A3A0A0" fill-opacity="0.92"/>
<ellipse cx="72.5" cy="43.5" rx="7.5" ry="6.5" fill="#A3A0A0"/>
<ellipse cx="70.5" cy="37.5" rx="7.5" ry="6.5" fill="#A3A0A0"/>
<ellipse cx="64.5" cy="44.5" rx="7.5" ry="6.5" fill="#A3A0A0" fill-opacity="0.93"/>
<ellipse cx="61.5" cy="38.5" rx="7.5" ry="6.5" fill="#A3A0A0" fill-opacity="0.91"/>
<ellipse cx="57.5" cy="43.5" rx="7.5" ry="6.5" fill="#A3A0A0"/>
<ellipse cx="30.5" cy="47.5" rx="7.5" ry="6.5" fill="#A3A0A0"/>
<ellipse cx="39.5" cy="49.5" rx="7.5" ry="6.5" fill="#A3A0A0"/>
<ellipse cx="52.5" cy="12.5" rx="7.5" ry="6.5" fill="#A3A0A0"/>
<ellipse cx="61.5" cy="15.5" rx="7.5" ry="6.5" fill="#A3A0A0"/>
<ellipse cx="59.5" cy="10.5" rx="7.5" ry="6.5" fill="#E5E3E3" fill-opacity="0.88"/>
<ellipse cx="55.5" cy="20.5" rx="7.5" ry="6.5" fill="#A3A0A0"/>
<ellipse cx="66.5" cy="21.5" rx="7.5" ry="6.5" fill="#A3A0A0"/>
<ellipse cx="30.5" cy="51.5" rx="7.5" ry="6.5" fill="#A3A0A0"/>
<ellipse cx="36.5" cy="44.5" rx="7.5" ry="6.5" fill="#E8E6E6" fill-opacity="0.83"/>
<ellipse cx="23.5" cy="48.5" rx="7.5" ry="6.5" fill="#A3A0A0" fill-opacity="0.94"/>
<path d="M28.0642 58.5984C28.0642 59.4269 28.3927 60.0984 27.5642 60.0984C26.7358 60.0984 27.0642 59.4269 27.0642 58.5984C27.0642 57.77 26.7358 58.0431 27.5642 58.0431C28.3927 58.0431 28.0642 57.77 28.0642 58.5984Z" fill="#A5D7EC" fill-opacity="0.69"/>
<path d="M34.0642 61.5984C34.0642 62.4269 34.3927 63.0984 33.5642 63.0984C32.7358 63.0984 33.0642 62.4269 33.0642 61.5984C33.0642 60.77 32.7358 61.0431 33.5642 61.0431C34.3927 61.0431 34.0642 60.77 34.0642 61.5984Z" fill="#A5D7EC" fill-opacity="0.69"/>
<path d="M45.0642 54.5984C45.0642 55.4269 45.3927 56.0984 44.5642 56.0984C43.7358 56.0984 44.0642 55.4269 44.0642 54.5984C44.0642 53.77 43.7358 54.0431 44.5642 54.0431C45.3927 54.0431 45.0642 53.77 45.0642 54.5984Z" fill="#A5D7EC" fill-opacity="0.69"/>
<path d="M58.0642 50.5984C58.0642 51.4269 58.3927 52.0984 57.5642 52.0984C56.7358 52.0984 57.0642 51.4269 57.0642 50.5984C57.0642 49.77 56.7358 50.0431 57.5642 50.0431C58.3927 50.0431 58.0642 49.77 58.0642 50.5984Z" fill="#A5D7EC" fill-opacity="0.69"/>
<path d="M62.0642 51.5984C62.0642 52.4269 62.3927 53.0984 61.5642 53.0984C60.7358 53.0984 61.0642 52.4269 61.0642 51.5984C61.0642 50.77 60.7358 51.0431 61.5642 51.0431C62.3927 51.0431 62.0642 50.77 62.0642 51.5984Z" fill="#A5D7EC" fill-opacity="0.69"/>
<path d="M73.0642 50.5984C73.0642 51.4269 73.3927 52.0984 72.5642 52.0984C71.7358 52.0984 72.0642 51.4269 72.0642 50.5984C72.0642 49.77 71.7358 50.0431 72.5642 50.0431C73.3927 50.0431 73.0642 49.77 73.0642 50.5984Z" fill="#A5D7EC" fill-opacity="0.69"/>
<path d="M77.0642 49.5984C77.0642 50.4269 77.3927 51.0984 76.5642 51.0984C75.7358 51.0984 76.0642 50.4269 76.0642 49.5984C76.0642 48.77 75.7358 49.0431 76.5642 49.0431C77.3927 49.0431 77.0642 48.77 77.0642 49.5984Z" fill="#A5D7EC" fill-opacity="0.69"/>
<path d="M70.0642 49.5984C70.0642 50.4269 70.3927 51.0984 69.5642 51.0984C68.7358 51.0984 69.0642 50.4269 69.0642 49.5984C69.0642 48.77 68.7358 49.0431 69.5642 49.0431C70.3927 49.0431 70.0642 48.77 70.0642 49.5984Z" fill="#A5D7EC" fill-opacity="0.69"/>
<path d="M61.0642 25.5984C61.0642 26.4269 61.3927 27.0984 60.5642 27.0984C59.7358 27.0984 60.0642 26.4269 60.0642 25.5984C60.0642 24.77 59.7358 25.0431 60.5642 25.0431C61.3927 25.0431 61.0642 24.77 61.0642 25.5984Z" fill="#A5D7EC" fill-opacity="0.69"/>
<path d="M49.0642 18.5984C49.0642 19.4269 49.3927 20.0984 48.5642 20.0984C47.7358 20.0984 48.0642 19.4269 48.0642 18.5984C48.0642 17.77 47.7358 18.0431 48.5642 18.0431C49.3927 18.0431 49.0642 17.77 49.0642 18.5984Z" fill="#A5D7EC" fill-opacity="0.69"/>
<path d="M52.0642 28.5984C52.0642 29.4269 52.3927 30.0984 51.5642 30.0984C50.7358 30.0984 51.0642 29.4269 51.0642 28.5984C51.0642 27.77 50.7358 28.0431 51.5642 28.0431C52.3927 28.0431 52.0642 27.77 52.0642 28.5984Z" fill="#A5D7EC" fill-opacity="0.69"/>
<path d="M51.0642 37.5984C51.0642 38.4269 51.3927 39.0984 50.5642 39.0984C49.7358 39.0984 50.0642 38.4269 50.0642 37.5984C50.0642 36.77 49.7358 37.0431 50.5642 37.0431C51.3927 37.0431 51.0642 36.77 51.0642 37.5984Z" fill="#A5D7EC" fill-opacity="0.69"/>
<path d="M69.0642 55.5984C69.0642 56.4269 69.3927 57.0984 68.5642 57.0984C67.7358 57.0984 68.0642 56.4269 68.0642 55.5984C68.0642 54.77 67.7358 55.0431 68.5642 55.0431C69.3927 55.0431 69.0642 54.77 69.0642 55.5984Z" fill="#A5D7EC" fill-opacity="0.69"/>
<path d="M73.0642 56.5984C73.0642 57.4269 73.3927 58.0984 72.5642 58.0984C71.7358 58.0984 72.0642 57.4269 72.0642 56.5984C72.0642 55.77 71.7358 56.0431 72.5642 56.0431C73.3927 56.0431 73.0642 55.77 73.0642 56.5984Z" fill="#A5D7EC" fill-opacity="0.69"/>
<path d="M78.0642 62.5984C78.0642 63.4269 78.3927 64.0984 77.5642 64.0984C76.7358 64.0984 77.0642 63.4269 77.0642 62.5984C77.0642 61.77 76.7358 62.0431 77.5642 62.0431C78.3927 62.0431 78.0642 61.77 78.0642 62.5984Z" fill="#A5D7EC" fill-opacity="0.69"/>
<path d="M65.0642 64.5984C65.0642 65.4269 65.3927 66.0984 64.5642 66.0984C63.7358 66.0984 64.0642 65.4269 64.0642 64.5984C64.0642 63.77 63.7358 64.0431 64.5642 64.0431C65.3927 64.0431 65.0642 63.77 65.0642 64.5984Z" fill="#A5D7EC" fill-opacity="0.69"/>
<path d="M62.0642 58.5984C62.0642 59.4269 62.3927 60.0984 61.5642 60.0984C60.7358 60.0984 61.0642 59.4269 61.0642 58.5984C61.0642 57.77 60.7358 58.0431 61.5642 58.0431C62.3927 58.0431 62.0642 57.77 62.0642 58.5984Z" fill="#A5D7EC" fill-opacity="0.69"/>
<path d="M40.0642 66.5984C40.0642 67.4269 40.3927 68.0984 39.5642 68.0984C38.7358 68.0984 39.0642 67.4269 39.0642 66.5984C39.0642 65.77 38.7358 66.0431 39.5642 66.0431C40.3927 66.0431 40.0642 65.77 40.0642 66.5984Z" fill="#A5D7EC" fill-opacity="0.69"/>
<path d="M40.0642 66.5984C40.0642 67.4269 40.3927 68.0984 39.5642 68.0984C38.7358 68.0984 39.0642 67.4269 39.0642 66.5984C39.0642 65.77 38.7358 66.0431 39.5642 66.0431C40.3927 66.0431 40.0642 65.77 40.0642 66.5984Z" fill="#A5D7EC" fill-opacity="0.69"/>
<path d="M33.0642 70.5984C33.0642 71.4269 33.3927 72.0984 32.5642 72.0984C31.7358 72.0984 32.0642 71.4269 32.0642 70.5984C32.0642 69.77 31.7358 70.0431 32.5642 70.0431C33.3927 70.0431 33.0642 69.77 33.0642 70.5984Z" fill="#A5D7EC" fill-opacity="0.69"/>
<path d="M37.0642 55.5984C37.0642 56.4269 37.3927 57.0984 36.5642 57.0984C35.7358 57.0984 36.0642 56.4269 36.0642 55.5984C36.0642 54.77 35.7358 55.0431 36.5642 55.0431C37.3927 55.0431 37.0642 54.77 37.0642 55.5984Z" fill="#A5D7EC" fill-opacity="0.69"/>
<path d="M83.7495 49.1868L83.8242 50.618L85.0779 51.3474L83.9239 52.2139L85.2524 53.9058L84.5246 55.2265L85.2425 56.6759" stroke="#CF74EF" stroke-opacity="0.36"/>
<path d="M64.7495 49.1868L64.8242 50.618L66.0779 51.3474L64.9239 52.2139L66.2524 53.9058L65.5246 55.2265L66.2425 56.6759" stroke="#CF74EF" stroke-opacity="0.36"/>
</svg>
